<?xml version="1.0" standalone="no"?>
<!DOCTYPE svg PUBLIC "-//W3C//DTD SVG 20010904//EN"
 "http://www.w3.org/TR/2001/REC-SVG-20010904/DTD/svg10.dtd">
<svg version="1.0" xmlns="http://www.w3.org/2000/svg"
 width="469.000000pt" height="122.000000pt" viewBox="0 0 469.000000 122.000000"
 preserveAspectRatio="xMidYMid meet">

<g transform="translate(0.000000,122.000000) scale(0.100000,-0.100000)"
fill="#000000" stroke="none">
<path d="M571 982 c-42 -66 -63 -130 -56 -170 7 -40 54 -72 103 -72 46 0 92
46 92 92 0 50 -75 198 -100 198 -4 0 -22 -22 -39 -48z"/>
<path d="M1282 603 l3 -218 40 0 40 0 95 160 95 159 3 -162 2 -162 39 0 39 0
126 214 c69 118 126 217 126 221 0 3 -16 5 -36 3 -35 -3 -38 -7 -127 -160 -51
-86 -96 -157 -100 -158 -5 0 -8 48 -6 108 1 59 1 131 0 160 l-1 52 -37 0 -38
0 -95 -162 -95 -162 -3 162 -2 162 -35 0 -35 0 2 -217z"/>
<path d="M1932 603 l3 -218 110 0 110 0 3 33 3 32 -80 0 -81 0 0 60 0 60 61 0
60 0 -3 33 -3 32 -57 -3 -58 -3 0 60 0 60 78 3 77 3 3 33 3 32 -116 0 -115 0
2 -217z"/>
<path d="M2340 623 c-68 -109 -130 -208 -138 -220 -14 -22 -13 -23 24 -23 36
0 41 4 74 55 l35 55 73 0 72 0 0 -56 0 -55 33 3 32 3 3 218 2 217 -42 0 -43 0
-125 -197z m140 7 l0 -80 -50 0 c-27 0 -50 3 -50 6 0 8 91 154 96 154 2 0 4
-36 4 -80z"/>
<path d="M2609 810 c-1 -5 -1 -17 -1 -25 0 -32 3 -35 47 -35 l45 0 0 -185 0
-185 30 0 30 0 0 184 0 185 48 3 c45 3 47 4 50 36 l3 32 -125 0 c-77 0 -126
-4 -127 -10z"/>
<path d="M2920 600 l0 -220 30 0 30 0 0 95 0 95 90 0 90 0 0 -96 0 -95 33 3
32 3 3 218 2 217 -35 0 -35 0 0 -93 0 -94 -87 1 -88 1 -3 93 -3 92 -29 0 -30
0 0 -220z"/>
<path d="M3300 600 l0 -220 110 0 110 0 0 35 0 35 -80 0 -80 0 0 60 0 60 59 0
c54 0 59 2 63 24 7 36 -1 41 -62 41 l-55 0 -3 58 -3 57 81 0 80 0 0 35 0 35
-110 0 -110 0 0 -220z"/>
<path d="M3570 599 l0 -220 33 3 32 3 3 93 3 92 33 0 c33 0 36 -4 84 -92 47
-89 50 -93 85 -96 21 -2 37 -1 37 1 0 2 -22 46 -49 97 l-49 93 32 31 c44 41
54 94 29 143 -29 56 -71 73 -180 73 l-93 0 0 -221z m204 135 c22 -21 20 -60
-4 -84 -15 -15 -33 -20 -75 -20 l-55 0 0 60 0 60 59 0 c41 0 65 -5 75 -16z"/>
<path d="M4185 711 c36 -60 65 -112 65 -115 0 -3 -27 -50 -60 -104 -33 -55
-60 -103 -60 -106 0 -4 17 -6 37 -4 34 3 40 8 74 68 21 35 42 66 47 68 5 1 28
-29 51 -68 39 -65 44 -70 76 -70 19 0 35 4 35 8 0 4 -13 28 -28 53 -15 24 -43
70 -61 101 l-32 58 52 87 c29 49 59 98 67 111 14 21 13 22 -26 22 -40 0 -41
-1 -83 -75 -24 -41 -45 -75 -48 -75 -4 0 -26 34 -49 75 -43 73 -45 75 -82 75
l-39 0 64 -109z"/>
<path d="M430 775 c0 -18 34 -66 59 -84 63 -45 71 -7 11 51 -36 33 -70 49 -70
33z"/>
<path d="M748 762 c-30 -20 -68 -65 -68 -81 0 -34 79 18 106 70 17 35 4 39
-38 11z"/>
<path d="M316 684 c-47 -17 -136 -72 -136 -84 0 -13 51 -47 112 -75 72 -34
112 -33 149 4 33 34 38 75 14 121 -26 51 -66 61 -139 34z"/>
<path d="M800 687 c-30 -15 -55 -76 -46 -112 10 -40 50 -75 85 -75 40 0 104
26 164 66 l49 32 -48 33 c-49 34 -132 69 -162 69 -9 0 -28 -6 -42 -13z"/>
<path d="M569 629 c-17 -33 3 -69 39 -69 33 0 52 16 52 45 0 29 -19 45 -52 45
-18 0 -31 -7 -39 -21z"/>
<path d="M3900 610 l0 -30 100 0 100 0 0 30 0 30 -100 0 -100 0 0 -30z"/>
<path d="M493 509 c-31 -20 -53 -47 -66 -81 -5 -15 -3 -16 21 -7 34 13 70 46
88 82 18 34 4 36 -43 6z"/>
<path d="M680 523 c0 -32 99 -127 115 -111 3 2 -4 20 -14 39 -23 44 -101 99
-101 72z"/>
<path d="M553 440 c-60 -36 -50 -123 26 -234 l33 -48 32 49 c81 121 86 202 16
238 -39 20 -69 19 -107 -5z"/>
</g>
</svg>
